<mxfile host="Electron" modified="2021-12-02T20:55:13.606Z" agent="5.0 (X11; Linux x86_64) AppleWebKit/537.36 (KHTML, like Gecko) draw.io/15.8.4 Chrome/91.0.4472.164 Electron/13.6.2 Safari/537.36" etag="-EOz3LZgojYnt4ZmRNQ8" compressed="false" version="15.8.4" type="device">
  <diagram id="aaRBlbIfEOCTvdF3LA9z" name="Page-1">
    <mxGraphModel dx="92" dy="57" grid="1" gridSize="3.937" guides="1" tooltips="1" connect="1" arrows="1" fold="1" page="1" pageScale="1" pageWidth="291" pageHeight="413" math="0" shadow="0">
      <root>
        <mxCell id="0" />
        <mxCell id="1" parent="0" />
        <mxCell id="eiOEyKE2oN8kCugcmJj7-1133" value="5mm" style="text;strokeColor=none;fillColor=#eeeeee;align=center;verticalAlign=middle;spacingLeft=0;spacingRight=0;overflow=hidden;points=[[0,0.5],[1,0.5]];portConstraint=eastwest;rotatable=0;labelBackgroundColor=none;pointerEvents=0;fontSize=6;opacity=66;strokeWidth=0.5;spacing=1;textOpacity=66;fontStyle=2;fontFamily=Verdana;spacingBottom=0;spacingTop=0;labelPosition=center;verticalLabelPosition=middle;connectable=0;allowArrows=0;recursiveResize=0;expand=0;movable=0;resizable=0;cloneable=0;deletable=0;" vertex="1" parent="1">
          <mxGeometry x="91.3384" y="111.0234" width="18.1102" height="7.0866" as="geometry" />
        </mxCell>
        <mxCell id="eiOEyKE2oN8kCugcmJj7-1071" value="" style="aspect=fixed;pointerEvents=0;fontSize=1;strokeWidth=0.72;opacity=33;fillColor=#d5e8d4;strokeColor=#82b366;spacing=0;fontColor=none;noLabel=1;recursiveResize=0;connectable=0;allowArrows=0;rotatable=0;cloneable=0;deletable=0;resizable=0;movable=0;expand=0;" vertex="1" parent="1">
          <mxGeometry x="31.42999999999998" y="31.499999999999986" width="78.6" height="78.74" as="geometry" />
        </mxCell>
        <mxCell id="eiOEyKE2oN8kCugcmJj7-1076" value="" style="line;strokeWidth=0.72;pointerEvents=0;fontSize=1;opacity=33;fillColor=none;strokeColor=#82b366;spacing=0;labelBackgroundColor=none;fontColor=none;noLabel=1;connectable=0;allowArrows=0;resizable=0;rotatable=0;recursiveResize=0;expand=0;deletable=0;cloneable=0;spacingTop=0;movable=0;" vertex="1" parent="1">
          <mxGeometry x="31.42999999999998" y="31.499999999999986" width="78.74" height="7.87" as="geometry" />
        </mxCell>
        <mxCell id="eiOEyKE2oN8kCugcmJj7-1078" value="" style="line;strokeWidth=0.72;pointerEvents=0;fontSize=1;opacity=33;fillColor=none;strokeColor=#82b366;spacing=0;labelBackgroundColor=none;fontColor=none;noLabel=1;connectable=0;allowArrows=0;resizable=0;rotatable=0;recursiveResize=0;expand=0;deletable=0;cloneable=0;rotation=90;spacingTop=0;movable=0;" vertex="1" parent="1">
          <mxGeometry x="-4.003000000000014" y="66.93699999999998" width="78.74" height="7.87" as="geometry" />
        </mxCell>
        <mxCell id="eiOEyKE2oN8kCugcmJj7-1079" value="" style="line;strokeWidth=0.72;pointerEvents=0;fontSize=1;opacity=33;fillColor=none;strokeColor=#82b366;spacing=0;labelBackgroundColor=none;fontColor=none;noLabel=1;connectable=0;allowArrows=0;resizable=0;rotatable=0;recursiveResize=0;expand=0;deletable=0;cloneable=0;spacingTop=0;movable=0;" vertex="1" parent="1">
          <mxGeometry x="31.286999999999978" y="35.43699999999998" width="78.74" height="7.87" as="geometry" />
        </mxCell>
        <mxCell id="eiOEyKE2oN8kCugcmJj7-1080" value="" style="line;strokeWidth=0.72;pointerEvents=0;fontSize=1;opacity=33;fillColor=none;strokeColor=#82b366;spacing=0;labelBackgroundColor=none;fontColor=none;noLabel=1;connectable=0;allowArrows=0;resizable=0;rotatable=0;recursiveResize=0;expand=0;deletable=0;cloneable=0;spacingTop=0;movable=0;" vertex="1" parent="1">
          <mxGeometry x="31.283999999999978" y="39.37399999999998" width="78.74" height="7.87" as="geometry" />
        </mxCell>
        <mxCell id="eiOEyKE2oN8kCugcmJj7-1081" value="" style="line;strokeWidth=0.72;pointerEvents=0;fontSize=1;opacity=33;fillColor=none;strokeColor=#82b366;spacing=0;labelBackgroundColor=none;fontColor=none;noLabel=1;connectable=0;allowArrows=0;resizable=0;rotatable=0;recursiveResize=0;expand=0;deletable=0;cloneable=0;spacingTop=0;movable=0;" vertex="1" parent="1">
          <mxGeometry x="31.43099999999997" y="43.31099999999998" width="78.74" height="7.87" as="geometry" />
        </mxCell>
        <mxCell id="eiOEyKE2oN8kCugcmJj7-1090" value="" style="line;strokeWidth=0.72;pointerEvents=0;fontSize=1;opacity=33;fillColor=none;strokeColor=#82b366;spacing=0;labelBackgroundColor=none;fontColor=none;noLabel=1;connectable=0;allowArrows=0;resizable=0;rotatable=0;recursiveResize=0;expand=0;deletable=0;cloneable=0;spacingTop=0;movable=0;" vertex="1" parent="1">
          <mxGeometry x="31.35799999999996" y="47.247999999999976" width="78.74" height="7.87" as="geometry" />
        </mxCell>
        <mxCell id="eiOEyKE2oN8kCugcmJj7-1091" value="" style="line;strokeWidth=0.72;pointerEvents=0;fontSize=1;opacity=33;fillColor=none;strokeColor=#82b366;spacing=0;labelBackgroundColor=none;fontColor=none;noLabel=1;connectable=0;allowArrows=0;resizable=0;rotatable=0;recursiveResize=0;expand=0;deletable=0;cloneable=0;spacingTop=0;movable=0;" vertex="1" parent="1">
          <mxGeometry x="31.43499999999996" y="51.184999999999974" width="78.74" height="7.87" as="geometry" />
        </mxCell>
        <mxCell id="eiOEyKE2oN8kCugcmJj7-1092" value="" style="line;strokeWidth=0.72;pointerEvents=0;fontSize=1;opacity=33;fillColor=none;strokeColor=#82b366;spacing=0;labelBackgroundColor=none;fontColor=none;noLabel=1;connectable=0;allowArrows=0;resizable=0;rotatable=0;recursiveResize=0;expand=0;deletable=0;cloneable=0;spacingTop=0;movable=0;" vertex="1" parent="1">
          <mxGeometry x="31.43199999999996" y="55.12199999999997" width="78.74" height="7.87" as="geometry" />
        </mxCell>
        <mxCell id="eiOEyKE2oN8kCugcmJj7-1093" value="" style="line;strokeWidth=0.72;pointerEvents=0;fontSize=1;opacity=33;fillColor=none;strokeColor=#82b366;spacing=0;labelBackgroundColor=none;fontColor=none;noLabel=1;connectable=0;allowArrows=0;resizable=0;rotatable=0;recursiveResize=0;expand=0;deletable=0;cloneable=0;spacingTop=0;movable=0;" vertex="1" parent="1">
          <mxGeometry x="31.43899999999995" y="59.05899999999997" width="78.74" height="7.87" as="geometry" />
        </mxCell>
        <mxCell id="eiOEyKE2oN8kCugcmJj7-1094" value="" style="line;strokeWidth=0.72;pointerEvents=0;fontSize=1;opacity=33;fillColor=none;strokeColor=#82b366;spacing=0;labelBackgroundColor=none;fontColor=none;noLabel=1;connectable=0;allowArrows=0;resizable=0;rotatable=0;recursiveResize=0;expand=0;deletable=0;cloneable=0;spacingTop=0;movable=0;" vertex="1" parent="1">
          <mxGeometry x="31.425999999999945" y="62.99599999999997" width="78.74" height="7.87" as="geometry" />
        </mxCell>
        <mxCell id="eiOEyKE2oN8kCugcmJj7-1095" value="" style="line;strokeWidth=0.72;pointerEvents=0;fontSize=1;opacity=33;fillColor=none;strokeColor=#82b366;spacing=0;labelBackgroundColor=none;fontColor=none;noLabel=1;connectable=0;allowArrows=0;resizable=0;rotatable=0;recursiveResize=0;expand=0;deletable=0;cloneable=0;spacingTop=0;movable=0;" vertex="1" parent="1">
          <mxGeometry x="31.44299999999994" y="66.93299999999996" width="78.74" height="7.87" as="geometry" />
        </mxCell>
        <mxCell id="eiOEyKE2oN8kCugcmJj7-1096" value="" style="line;strokeWidth=0.72;pointerEvents=0;fontSize=1;opacity=33;fillColor=none;strokeColor=#82b366;spacing=0;labelBackgroundColor=none;fontColor=none;noLabel=1;connectable=0;allowArrows=0;resizable=0;rotatable=0;recursiveResize=0;expand=0;deletable=0;cloneable=0;spacingTop=0;movable=0;" vertex="1" parent="1">
          <mxGeometry x="31.43999999999994" y="70.86999999999996" width="78.74" height="7.87" as="geometry" />
        </mxCell>
        <mxCell id="eiOEyKE2oN8kCugcmJj7-1097" value="" style="line;strokeWidth=0.72;pointerEvents=0;fontSize=1;opacity=33;fillColor=none;strokeColor=#82b366;spacing=0;labelBackgroundColor=none;fontColor=none;noLabel=1;connectable=0;allowArrows=0;resizable=0;rotatable=0;recursiveResize=0;expand=0;deletable=0;cloneable=0;spacingTop=0;movable=0;" vertex="1" parent="1">
          <mxGeometry x="31.44699999999993" y="74.80699999999996" width="78.74" height="7.87" as="geometry" />
        </mxCell>
        <mxCell id="eiOEyKE2oN8kCugcmJj7-1098" value="" style="line;strokeWidth=0.72;pointerEvents=0;fontSize=1;opacity=33;fillColor=none;strokeColor=#82b366;spacing=0;labelBackgroundColor=none;fontColor=none;noLabel=1;connectable=0;allowArrows=0;resizable=0;rotatable=0;recursiveResize=0;expand=0;deletable=0;cloneable=0;spacingTop=0;movable=0;" vertex="1" parent="1">
          <mxGeometry x="31.44399999999993" y="78.74399999999996" width="78.74" height="7.87" as="geometry" />
        </mxCell>
        <mxCell id="eiOEyKE2oN8kCugcmJj7-1099" value="" style="line;strokeWidth=0.72;pointerEvents=0;fontSize=1;opacity=33;fillColor=none;strokeColor=#82b366;spacing=0;labelBackgroundColor=none;fontColor=none;noLabel=1;connectable=0;allowArrows=0;resizable=0;rotatable=0;recursiveResize=0;expand=0;deletable=0;cloneable=0;spacingTop=0;movable=0;" vertex="1" parent="1">
          <mxGeometry x="31.450999999999922" y="82.68099999999995" width="78.74" height="7.87" as="geometry" />
        </mxCell>
        <mxCell id="eiOEyKE2oN8kCugcmJj7-1100" value="" style="line;strokeWidth=0.72;pointerEvents=0;fontSize=1;opacity=33;fillColor=none;strokeColor=#82b366;spacing=0;labelBackgroundColor=none;fontColor=none;noLabel=1;connectable=0;allowArrows=0;resizable=0;rotatable=0;recursiveResize=0;expand=0;deletable=0;cloneable=0;spacingTop=0;movable=0;" vertex="1" parent="1">
          <mxGeometry x="31.447999999999922" y="86.61799999999995" width="78.74" height="7.87" as="geometry" />
        </mxCell>
        <mxCell id="eiOEyKE2oN8kCugcmJj7-1101" value="" style="line;strokeWidth=0.72;pointerEvents=0;fontSize=1;opacity=33;fillColor=none;strokeColor=#82b366;spacing=0;labelBackgroundColor=none;fontColor=none;noLabel=1;connectable=0;allowArrows=0;resizable=0;rotatable=0;recursiveResize=0;expand=0;deletable=0;cloneable=0;spacingTop=0;movable=0;" vertex="1" parent="1">
          <mxGeometry x="31.284999999999926" y="90.55499999999995" width="78.74" height="7.87" as="geometry" />
        </mxCell>
        <mxCell id="eiOEyKE2oN8kCugcmJj7-1102" value="" style="line;strokeWidth=0.72;pointerEvents=0;fontSize=1;opacity=33;fillColor=none;strokeColor=#82b366;spacing=0;labelBackgroundColor=none;fontColor=none;noLabel=1;connectable=0;allowArrows=0;resizable=0;rotatable=0;recursiveResize=0;expand=0;deletable=0;cloneable=0;spacingTop=0;movable=0;" vertex="1" parent="1">
          <mxGeometry x="31.451999999999927" y="94.49199999999995" width="78.74" height="7.87" as="geometry" />
        </mxCell>
        <mxCell id="eiOEyKE2oN8kCugcmJj7-1103" value="" style="line;strokeWidth=0.72;pointerEvents=0;fontSize=1;opacity=33;fillColor=none;strokeColor=#82b366;spacing=0;labelBackgroundColor=none;fontColor=none;noLabel=1;connectable=0;allowArrows=0;resizable=0;rotatable=0;recursiveResize=0;expand=0;deletable=0;cloneable=0;spacingTop=0;movable=0;" vertex="1" parent="1">
          <mxGeometry x="31.448999999999927" y="98.42899999999995" width="78.74" height="7.87" as="geometry" />
        </mxCell>
        <mxCell id="eiOEyKE2oN8kCugcmJj7-1104" value="" style="line;strokeWidth=0.72;pointerEvents=0;fontSize=1;opacity=33;fillColor=none;strokeColor=#82b366;spacing=0;labelBackgroundColor=none;fontColor=none;noLabel=1;connectable=0;allowArrows=0;resizable=0;rotatable=0;recursiveResize=0;expand=0;deletable=0;cloneable=0;spacingTop=0;movable=0;" vertex="1" parent="1">
          <mxGeometry x="31.455999999999918" y="102.36599999999994" width="78.74" height="7.87" as="geometry" />
        </mxCell>
        <mxCell id="eiOEyKE2oN8kCugcmJj7-1105" value="" style="line;strokeWidth=0.72;pointerEvents=0;fontSize=1;opacity=66;fillColor=none;strokeColor=#82b366;spacing=0;labelBackgroundColor=none;fontColor=none;noLabel=1;connectable=0;allowArrows=0;resizable=0;rotatable=0;recursiveResize=0;expand=0;deletable=0;cloneable=0;spacingTop=0;movable=0;" vertex="1" parent="1">
          <mxGeometry x="23.56" y="106.3" width="94.55" height="7.87" as="geometry" />
        </mxCell>
        <mxCell id="eiOEyKE2oN8kCugcmJj7-1106" value="" style="line;strokeWidth=0.72;pointerEvents=0;fontSize=1;opacity=33;fillColor=none;strokeColor=#82b366;spacing=0;labelBackgroundColor=none;fontColor=none;noLabel=1;connectable=0;allowArrows=0;resizable=0;rotatable=0;recursiveResize=0;expand=0;deletable=0;cloneable=0;rotation=90;spacingTop=0;movable=0;" vertex="1" parent="1">
          <mxGeometry x="-0.06600000000001671" y="66.93399999999998" width="78.74" height="7.87" as="geometry" />
        </mxCell>
        <mxCell id="eiOEyKE2oN8kCugcmJj7-1107" value="" style="line;strokeWidth=0.72;pointerEvents=0;fontSize=1;opacity=33;fillColor=none;strokeColor=#82b366;spacing=0;labelBackgroundColor=none;fontColor=none;noLabel=1;connectable=0;allowArrows=0;resizable=0;rotatable=0;recursiveResize=0;expand=0;deletable=0;cloneable=0;rotation=90;spacingTop=0;movable=0;" vertex="1" parent="1">
          <mxGeometry x="3.870999999999981" y="66.94099999999997" width="78.74" height="7.87" as="geometry" />
        </mxCell>
        <mxCell id="eiOEyKE2oN8kCugcmJj7-1108" value="" style="line;strokeWidth=0.72;pointerEvents=0;fontSize=1;opacity=33;fillColor=none;strokeColor=#82b366;spacing=0;labelBackgroundColor=none;fontColor=none;noLabel=1;connectable=0;allowArrows=0;resizable=0;rotatable=0;recursiveResize=0;expand=0;deletable=0;cloneable=0;rotation=90;spacingTop=0;movable=0;" vertex="1" parent="1">
          <mxGeometry x="7.8079999999999785" y="66.93799999999997" width="78.74" height="7.87" as="geometry" />
        </mxCell>
        <mxCell id="eiOEyKE2oN8kCugcmJj7-1109" value="" style="line;strokeWidth=0.72;pointerEvents=0;fontSize=1;opacity=33;fillColor=none;strokeColor=#82b366;spacing=0;labelBackgroundColor=none;fontColor=none;noLabel=1;connectable=0;allowArrows=0;resizable=0;rotatable=0;recursiveResize=0;expand=0;deletable=0;cloneable=0;rotation=90;spacingTop=0;movable=0;" vertex="1" parent="1">
          <mxGeometry x="11.744999999999976" y="66.94499999999996" width="78.74" height="7.87" as="geometry" />
        </mxCell>
        <mxCell id="eiOEyKE2oN8kCugcmJj7-1110" value="" style="line;strokeWidth=0.72;pointerEvents=0;fontSize=1;opacity=33;fillColor=none;strokeColor=#82b366;spacing=0;labelBackgroundColor=none;fontColor=none;noLabel=1;connectable=0;allowArrows=0;resizable=0;rotatable=0;recursiveResize=0;expand=0;deletable=0;cloneable=0;rotation=90;spacingTop=0;movable=0;" vertex="1" parent="1">
          <mxGeometry x="15.681999999999974" y="66.94199999999996" width="78.74" height="7.87" as="geometry" />
        </mxCell>
        <mxCell id="eiOEyKE2oN8kCugcmJj7-1111" value="" style="line;strokeWidth=0.72;pointerEvents=0;fontSize=1;opacity=33;fillColor=none;strokeColor=#82b366;spacing=0;labelBackgroundColor=none;fontColor=none;noLabel=1;connectable=0;allowArrows=0;resizable=0;rotatable=0;recursiveResize=0;expand=0;deletable=0;cloneable=0;rotation=90;spacingTop=0;movable=0;" vertex="1" parent="1">
          <mxGeometry x="19.61899999999997" y="66.94899999999996" width="78.74" height="7.87" as="geometry" />
        </mxCell>
        <mxCell id="eiOEyKE2oN8kCugcmJj7-1112" value="" style="line;strokeWidth=0.72;pointerEvents=0;fontSize=1;opacity=33;fillColor=none;strokeColor=#82b366;spacing=0;labelBackgroundColor=none;fontColor=none;noLabel=1;connectable=0;allowArrows=0;resizable=0;rotatable=0;recursiveResize=0;expand=0;deletable=0;cloneable=0;rotation=90;spacingTop=0;movable=0;" vertex="1" parent="1">
          <mxGeometry x="23.55599999999997" y="66.92599999999996" width="78.74" height="7.87" as="geometry" />
        </mxCell>
        <mxCell id="eiOEyKE2oN8kCugcmJj7-1113" value="" style="line;strokeWidth=0.72;pointerEvents=0;fontSize=1;opacity=33;fillColor=none;strokeColor=#82b366;spacing=0;labelBackgroundColor=none;fontColor=none;noLabel=1;connectable=0;allowArrows=0;resizable=0;rotatable=0;recursiveResize=0;expand=0;deletable=0;cloneable=0;rotation=90;spacingTop=0;movable=0;" vertex="1" parent="1">
          <mxGeometry x="27.48899999999999" y="66.929" width="78.74" height="7.87" as="geometry" />
        </mxCell>
        <mxCell id="eiOEyKE2oN8kCugcmJj7-1114" value="" style="line;strokeWidth=0.72;pointerEvents=0;fontSize=1;opacity=33;fillColor=none;strokeColor=#82b366;spacing=0;labelBackgroundColor=none;fontColor=none;noLabel=1;connectable=0;allowArrows=0;resizable=0;rotatable=0;recursiveResize=0;expand=0;deletable=0;cloneable=0;rotation=90;spacingTop=0;movable=0;" vertex="1" parent="1">
          <mxGeometry x="31.45599999999999" y="66.926" width="78.74" height="7.87" as="geometry" />
        </mxCell>
        <mxCell id="eiOEyKE2oN8kCugcmJj7-1115" value="" style="line;strokeWidth=0.72;pointerEvents=0;fontSize=1;opacity=33;fillColor=none;strokeColor=#82b366;spacing=0;labelBackgroundColor=none;fontColor=none;noLabel=1;connectable=0;allowArrows=0;resizable=0;rotatable=0;recursiveResize=0;expand=0;deletable=0;cloneable=0;rotation=90;spacingTop=0;movable=0;" vertex="1" parent="1">
          <mxGeometry x="35.39299999999999" y="66.953" width="78.74" height="7.87" as="geometry" />
        </mxCell>
        <mxCell id="eiOEyKE2oN8kCugcmJj7-1116" value="" style="line;strokeWidth=0.72;pointerEvents=0;fontSize=1;opacity=33;fillColor=none;strokeColor=#82b366;spacing=0;labelBackgroundColor=none;fontColor=none;noLabel=1;connectable=0;allowArrows=0;resizable=0;rotatable=0;recursiveResize=0;expand=0;deletable=0;cloneable=0;rotation=90;spacingTop=0;movable=0;" vertex="1" parent="1">
          <mxGeometry x="39.329999999999984" y="66.95" width="78.74" height="7.87" as="geometry" />
        </mxCell>
        <mxCell id="eiOEyKE2oN8kCugcmJj7-1117" value="" style="line;strokeWidth=0.72;pointerEvents=0;fontSize=1;opacity=33;fillColor=none;strokeColor=#82b366;spacing=0;labelBackgroundColor=none;fontColor=none;noLabel=1;connectable=0;allowArrows=0;resizable=0;rotatable=0;recursiveResize=0;expand=0;deletable=0;cloneable=0;rotation=90;spacingTop=0;movable=0;" vertex="1" parent="1">
          <mxGeometry x="43.26699999999998" y="66.957" width="78.74" height="7.87" as="geometry" />
        </mxCell>
        <mxCell id="eiOEyKE2oN8kCugcmJj7-1118" value="" style="line;strokeWidth=0.72;pointerEvents=0;fontSize=1;opacity=33;fillColor=none;strokeColor=#82b366;spacing=0;labelBackgroundColor=none;fontColor=none;noLabel=1;connectable=0;allowArrows=0;resizable=0;rotatable=0;recursiveResize=0;expand=0;deletable=0;cloneable=0;rotation=90;spacingTop=0;movable=0;" vertex="1" parent="1">
          <mxGeometry x="47.20399999999998" y="66.954" width="78.74" height="7.87" as="geometry" />
        </mxCell>
        <mxCell id="eiOEyKE2oN8kCugcmJj7-1119" value="" style="line;strokeWidth=0.72;pointerEvents=0;fontSize=1;opacity=33;fillColor=none;strokeColor=#82b366;spacing=0;labelBackgroundColor=none;fontColor=none;noLabel=1;connectable=0;allowArrows=0;resizable=0;rotatable=0;recursiveResize=0;expand=0;deletable=0;cloneable=0;rotation=90;spacingTop=0;movable=0;" vertex="1" parent="1">
          <mxGeometry x="51.14099999999999" y="66.96099999999998" width="78.74" height="7.87" as="geometry" />
        </mxCell>
        <mxCell id="eiOEyKE2oN8kCugcmJj7-1120" value="" style="line;strokeWidth=0.72;pointerEvents=0;fontSize=1;opacity=33;fillColor=none;strokeColor=#82b366;spacing=0;labelBackgroundColor=none;fontColor=none;noLabel=1;connectable=0;allowArrows=0;resizable=0;rotatable=0;recursiveResize=0;expand=0;deletable=0;cloneable=0;rotation=90;spacingTop=0;movable=0;" vertex="1" parent="1">
          <mxGeometry x="55.078" y="66.95799999999998" width="78.74" height="7.87" as="geometry" />
        </mxCell>
        <mxCell id="eiOEyKE2oN8kCugcmJj7-1121" value="" style="line;strokeWidth=0.72;pointerEvents=0;fontSize=1;opacity=33;fillColor=none;strokeColor=#82b366;spacing=0;labelBackgroundColor=none;fontColor=none;noLabel=1;connectable=0;allowArrows=0;resizable=0;rotatable=0;recursiveResize=0;expand=0;deletable=0;cloneable=0;rotation=90;spacingTop=0;movable=0;" vertex="1" parent="1">
          <mxGeometry x="59.015000000000015" y="66.96499999999997" width="78.74" height="7.87" as="geometry" />
        </mxCell>
        <mxCell id="eiOEyKE2oN8kCugcmJj7-1122" value="" style="line;strokeWidth=0.72;pointerEvents=0;fontSize=1;opacity=33;fillColor=none;strokeColor=#82b366;spacing=0;labelBackgroundColor=none;fontColor=none;noLabel=1;connectable=0;allowArrows=0;resizable=0;rotatable=0;recursiveResize=0;expand=0;deletable=0;cloneable=0;rotation=90;spacingTop=0;movable=0;" vertex="1" parent="1">
          <mxGeometry x="62.95200000000003" y="66.96199999999997" width="78.74" height="7.87" as="geometry" />
        </mxCell>
        <mxCell id="eiOEyKE2oN8kCugcmJj7-1123" value="" style="line;strokeWidth=0.72;pointerEvents=0;fontSize=1;opacity=33;fillColor=none;strokeColor=#82b366;spacing=0;labelBackgroundColor=none;fontColor=none;noLabel=1;connectable=0;allowArrows=0;resizable=0;rotatable=0;recursiveResize=0;expand=0;deletable=0;cloneable=0;rotation=90;spacingTop=0;movable=0;" vertex="1" parent="1">
          <mxGeometry x="66.88900000000004" y="66.929" width="78.74" height="7.87" as="geometry" />
        </mxCell>
        <mxCell id="eiOEyKE2oN8kCugcmJj7-1124" value="" style="line;strokeWidth=0.72;pointerEvents=0;fontSize=1;opacity=66;fillColor=none;strokeColor=#82b366;spacing=0;labelBackgroundColor=none;fontColor=none;noLabel=1;connectable=0;allowArrows=0;resizable=0;rotatable=0;recursiveResize=0;expand=0;deletable=0;cloneable=0;rotation=90;spacingTop=0;movable=0;" vertex="1" parent="1">
          <mxGeometry x="62.95" y="66.93" width="94.55" height="7.87" as="geometry" />
        </mxCell>
        <mxCell id="eiOEyKE2oN8kCugcmJj7-1125" value="" style="line;strokeWidth=0.72;pointerEvents=0;fontSize=1;opacity=66;fillColor=none;strokeColor=#82b366;spacing=0;labelBackgroundColor=none;fontColor=none;noLabel=1;connectable=0;allowArrows=0;resizable=0;rotatable=0;recursiveResize=0;expand=0;deletable=0;cloneable=0;spacingTop=0;movable=0;" vertex="1" parent="1">
          <mxGeometry x="23.557" y="86.61699999999999" width="94.55" height="7.87" as="geometry" />
        </mxCell>
        <mxCell id="eiOEyKE2oN8kCugcmJj7-1126" value="" style="line;strokeWidth=0.72;pointerEvents=0;fontSize=1;opacity=66;fillColor=none;strokeColor=#82b366;spacing=0;labelBackgroundColor=none;fontColor=none;noLabel=1;connectable=0;allowArrows=0;resizable=0;rotatable=0;recursiveResize=0;expand=0;deletable=0;cloneable=0;spacingTop=0;movable=0;" vertex="1" parent="1">
          <mxGeometry x="23.564" y="66.92399999999999" width="94.55" height="7.87" as="geometry" />
        </mxCell>
        <mxCell id="eiOEyKE2oN8kCugcmJj7-1127" value="" style="line;strokeWidth=0.72;pointerEvents=0;fontSize=1;opacity=66;fillColor=none;strokeColor=#82b366;spacing=0;labelBackgroundColor=none;fontColor=none;noLabel=1;connectable=0;allowArrows=0;resizable=0;rotatable=0;recursiveResize=0;expand=0;deletable=0;cloneable=0;spacingTop=0;movable=0;" vertex="1" parent="1">
          <mxGeometry x="23.561" y="47.25099999999999" width="94.55" height="7.87" as="geometry" />
        </mxCell>
        <mxCell id="eiOEyKE2oN8kCugcmJj7-1128" value="" style="line;strokeWidth=0.72;pointerEvents=0;fontSize=1;opacity=66;fillColor=none;strokeColor=#82b366;spacing=0;labelBackgroundColor=none;fontColor=none;noLabel=1;connectable=0;allowArrows=0;resizable=0;rotatable=0;recursiveResize=0;expand=0;deletable=0;cloneable=0;spacingTop=0;movable=0;" vertex="1" parent="1">
          <mxGeometry x="23.568" y="27.567999999999987" width="94.55" height="7.87" as="geometry" />
        </mxCell>
        <mxCell id="eiOEyKE2oN8kCugcmJj7-1129" value="" style="line;strokeWidth=0.72;pointerEvents=0;fontSize=1;opacity=66;fillColor=none;strokeColor=#82b366;spacing=0;labelBackgroundColor=none;fontColor=none;noLabel=1;connectable=0;allowArrows=0;resizable=0;rotatable=0;recursiveResize=0;expand=0;deletable=0;cloneable=0;rotation=90;spacingTop=0;movable=0;" vertex="1" parent="1">
          <mxGeometry x="43.266999999999996" y="66.967" width="94.55" height="7.87" as="geometry" />
        </mxCell>
        <mxCell id="eiOEyKE2oN8kCugcmJj7-1130" value="" style="line;strokeWidth=0.72;pointerEvents=0;fontSize=1;opacity=66;fillColor=none;strokeColor=#82b366;spacing=0;labelBackgroundColor=none;fontColor=none;noLabel=1;connectable=0;allowArrows=0;resizable=0;rotatable=0;recursiveResize=0;expand=0;deletable=0;cloneable=0;rotation=90;spacingTop=0;movable=0;" vertex="1" parent="1">
          <mxGeometry x="23.563999999999993" y="66.934" width="94.55" height="7.87" as="geometry" />
        </mxCell>
        <mxCell id="eiOEyKE2oN8kCugcmJj7-1131" value="" style="line;strokeWidth=0.72;pointerEvents=0;fontSize=1;opacity=66;fillColor=none;strokeColor=#82b366;spacing=0;labelBackgroundColor=none;fontColor=none;noLabel=1;connectable=0;allowArrows=0;resizable=0;rotatable=0;recursiveResize=0;expand=0;deletable=0;cloneable=0;rotation=90;spacingTop=0;movable=0;" vertex="1" parent="1">
          <mxGeometry x="3.870999999999995" y="66.97099999999999" width="94.55" height="7.87" as="geometry" />
        </mxCell>
        <mxCell id="eiOEyKE2oN8kCugcmJj7-1132" value="" style="line;strokeWidth=0.72;pointerEvents=0;fontSize=1;opacity=66;fillColor=none;strokeColor=#82b366;spacing=0;labelBackgroundColor=none;fontColor=none;noLabel=1;connectable=0;allowArrows=0;resizable=0;rotatable=0;recursiveResize=0;expand=0;deletable=0;cloneable=0;rotation=90;spacingTop=0;movable=0;" vertex="1" parent="1">
          <mxGeometry x="-15.872000000000005" y="66.96799999999999" width="94.55" height="7.87" as="geometry" />
        </mxCell>
        <mxCell id="eiOEyKE2oN8kCugcmJj7-1135" value="" style="rounded=0;whiteSpace=wrap;html=1;labelBackgroundColor=none;pointerEvents=0;fontFamily=Verdana;fontSize=5;fontColor=none;strokeWidth=1.4;fillColor=none;align=center;verticalAlign=middle;strokeColor=#FF0000;deletable=0;cloneable=0;rotatable=0;resizable=0;movable=0;expand=0;recursiveResize=0;allowArrows=0;connectable=0;" vertex="1" parent="1">
          <mxGeometry x="55.12" y="59.06" width="15.75" height="23.62" as="geometry" />
        </mxCell>
        <mxCell id="eiOEyKE2oN8kCugcmJj7-1138" value="" style="line;strokeWidth=1.4;pointerEvents=0;fontSize=1;fillColor=none;strokeColor=#FF0000;spacing=0;labelBackgroundColor=none;fontColor=none;noLabel=1;connectable=0;allowArrows=0;resizable=0;rotatable=0;recursiveResize=0;expand=0;deletable=0;cloneable=0;rotation=90;spacingTop=0;movable=0;" vertex="1" parent="1">
          <mxGeometry x="58.985" y="51.187" width="7.874" height="7.874" as="geometry" />
        </mxCell>
        <mxCell id="eiOEyKE2oN8kCugcmJj7-1139" value="" style="verticalLabelPosition=bottom;verticalAlign=top;html=1;shape=mxgraph.basic.polygon;polyCoords=[[0,0.2],[1,0],[1,0.2],[1,0.4],[1,0.6],[1,0.8],[1,1],[0,0.8]];polyline=1;fillColor=none;labelBackgroundColor=none;pointerEvents=0;fontFamily=Verdana;fontSize=5;fontColor=none;strokeColor=#FF0000;strokeWidth=1.4;deletable=0;cloneable=0;rotatable=0;resizable=0;movable=0;expand=0;recursiveResize=0;allowArrows=0;connectable=0;" vertex="1" parent="1">
          <mxGeometry x="70.87" y="51.18" width="15.74" height="39.37" as="geometry" />
        </mxCell>
        <mxCell id="eiOEyKE2oN8kCugcmJj7-1140" value="" style="line;strokeWidth=1.4;pointerEvents=0;fontSize=1;fillColor=none;strokeColor=#FF0000;spacing=0;labelBackgroundColor=none;fontColor=none;noLabel=1;connectable=0;allowArrows=0;resizable=0;rotatable=0;recursiveResize=0;expand=0;deletable=0;cloneable=0;rotation=90;spacingTop=0;movable=0;" vertex="1" parent="1">
          <mxGeometry x="59.062" y="82.67399999999999" width="7.874" height="7.874" as="geometry" />
        </mxCell>
      </root>
    </mxGraphModel>
  </diagram>
</mxfile>
